Coordinates
version=1
nRows=9
nColumns=36
inDegrees=yes

Units are S.I. units (second, meters, Newtons, ...)
If the header above contains a line with 'inDegrees', this indicates whether rotational values are in degrees (yes) or radians (no).

endheader
time	pelvis_tilt	pelvis_list	pelvis_rotation	pelvis_tx	pelvis_ty	pelvis_tz	hip_flexion_r	hip_adduction_r	hip_rotation_r	knee_angle_r	knee_angle_r_beta	ankle_angle_r	subtalar_angle_r	mtp_angle_r	hip_flexion_l	hip_adduction_l	hip_rotation_l	knee_angle_l	knee_angle_l_beta	ankle_angle_l	subtalar_angle_l	mtp_angle_l	lumbar_extension	lumbar_bending	lumbar_rotation	arm_flex_r	arm_add_r	arm_rot_r	elbow_flex_r	pro_sup_r	arm_flex_l	arm_add_l	arm_rot_l	elbow_flex_l	pro_sup_l
     14.90000000	      7.14921383	      4.85111764	    176.91283030	      0.27805472	      0.93051003	      0.77789498	     13.48766088	      2.82914585	     12.13150575	     60.15730424	      1.04994303	      9.56201827	    -11.35555585	     -7.49999987	     34.10377702	     -6.45290439	     -0.56360031	     34.43578815	      0.60101788	    -19.90777395	    -24.61738427	     -7.49999987	    -15.23350332	      1.05701836	      9.88286615	     11.08043514	    -18.35952207	      5.43047370	     35.46586541	     84.98187986	     16.25849415	     -5.91618083	     -3.85778977	     19.11145125	     89.50371061
     14.91666670	      6.67934330	      5.10153941	    177.17273151	      0.27746241	      0.93341551	      0.78085141	     15.20703459	      2.25933802	     10.89360596	     64.86303004	      1.13207344	      6.66201917	    -10.75084604	     -7.49999987	     32.18796714	     -5.79056149	     -0.29818795	     33.99627053	      0.59334685	    -18.25687473	    -24.86542669	     -7.49999987	    -15.65052180	      1.66589173	      9.50835454	     10.95195438	    -18.61585066	      5.35395630	     35.08921638	     84.95532612	     16.09643088	     -5.40243044	     -3.77097680	     19.08089135	     89.45292341
     14.93333330	      6.71484042	      4.78411804	    176.96855885	      0.27693881	      0.93678089	      0.78262602	     17.75739691	      1.35848648	     10.04758366	     69.13772673	      1.20668097	      3.98309147	    -10.97308325	     -7.49999987	     30.38468829	     -5.10280823	     -0.84820469	     32.51134876	      0.56743008	    -16.31565658	    -23.47927150	     -7.49999987	    -15.33174833	      1.23520893	      8.89582150	     10.92045871	    -17.88978330	      5.34644841	     33.45058943	     85.03128107	     15.98081690	     -5.60213771	     -3.68839956	     18.47085981	     89.36769854
     14.95000000	      6.51261558	      5.47598399	    177.01403817	      0.27713412	      0.94197326	      0.78530172	     19.74469918	      1.53367329	      8.71008782	     72.06715493	      1.25780914	      2.28090656	    -10.51252511	     -7.49999987	     28.64791481	     -5.37873585	     -0.65561086	     31.23069752	      0.54507850	    -15.36446251	    -23.24074893	     -7.49999987	    -15.63113892	      2.13771102	      8.51709572	     10.52078451	    -17.82256137	      5.35086122	     33.03015234	     84.97158772	     15.96162672	     -5.48407107	     -3.65265408	     18.56475488	     89.26939989
     14.96666670	      6.65602450	      5.92528328	    177.02500388	      0.27874998	      0.94702576	      0.78668002	     21.96527948	      1.76121423	      7.66865982	     74.06666968	      1.29270725	     -0.12408881	    -11.83251136	     -7.49999987	     27.43746767	     -5.73231655	     -0.96142402	     30.21581137	      0.52736539	    -13.98107232	    -22.20199314	     -7.49999987	    -15.22516883	      2.66589905	      7.51605817	     10.88930602	    -16.91525524	      5.22736105	     30.55140503	     85.10633396	     16.07862875	     -5.88198368	     -3.40286413	     17.90777991	     89.27906126
     14.98333330	      6.54730919	      6.47953128	    177.35516608	      0.28074685	      0.95073850	      0.78816772	     23.70691802	      2.10867457	      6.53368720	     75.15714633	      1.31173966	     -1.92803779	    -13.25827043	     -7.49999987	     26.33517734	     -6.09517587	     -1.03171724	     29.72332779	      0.51876993	    -12.59443002	    -22.02607521	     -7.49999987	    -15.31771089	      3.38060320	      6.77189632	     10.63272838	    -16.52777863	      5.19129116	     29.67638078	     85.17165420	     16.48029609	     -6.20179389	     -3.14413697	     18.18926685	     89.25928146
     15.00000000	      6.40405820	      6.88850036	    177.75403309	      0.28208527	      0.95440235	      0.78943425	     25.23526038	      2.42598107	      5.60573477	     75.15644559	      1.31172743	     -4.18615925	    -15.26777967	     -7.49999987	     25.17581646	     -6.31558347	     -1.33244803	     29.20694361	      0.50975733	    -10.66577131	    -21.52260068	     -7.49999987	    -15.38202177	      3.98298254	      6.02485208	     10.25543912	    -16.16446450	      4.99216582	     29.19415933	     85.16103006	     16.93554907	     -6.57509127	     -2.87142133	     18.54940356	     89.23990072
     15.01666670	      6.26248759	      7.29141060	    178.00968455	      0.28361008	      0.96051868	      0.78993177	     26.48700330	      2.87306799	      4.91700633	     73.41068918	      1.28125823	     -6.45596871	    -16.80220118	     -7.49999987	     23.53991268	     -6.66985074	     -2.10781308	     28.06876019	      0.48989228	     -8.26633858	    -19.50433117	     -7.49999987	    -15.30374186	      4.64677695	      5.20907985	     10.16868646	    -15.66616955	      4.52282376	     28.30195025	     84.86341641	     17.26247485	     -7.04029767	     -2.19873009	     18.63439992	     88.65277498
     15.03333330	      5.90870387	      7.45617643	    178.41212195	      0.28536727	      0.96787695	      0.79026439	     27.23374038	      2.99892429	      4.42219958	     69.86147437	      1.21931275	     -8.14848578	    -17.75989769	     -7.49999987	     21.40295921	     -6.66560199	     -2.45957659	     26.35773430	      0.46002925	     -6.12108601	    -17.24863476	     -7.49999987	    -15.65091963	      5.03914967	      4.35407719	      9.88601080	    -15.40001260	      4.25783562	     28.47675377	     85.39117526	     17.58136609	     -7.51070210	     -1.84746819	     18.92346353	     88.42756520
